HIERARCHY
ROOT Hips
{
	OFFSET 49.768101 -5.268425 86.454399
	CHANNELS 6 Xposition Yposition Zposition Xrotation Yrotation Zrotation
	JOINT spine
	{
		OFFSET 0.000000 -0.393701 6.846367
		CHANNELS 3 Xrotation Yrotation Zrotation
		JOINT spine1
		{
			OFFSET 0.000000 -0.000001 9.496208
			CHANNELS 3 Xrotation Yrotation Zrotation
			JOINT spine2
			{
				OFFSET 0.000000 -0.000001 9.099091
				CHANNELS 3 Xrotation Yrotation Zrotation
				JOINT Neck
				{
					OFFSET 0.000000 -1.113784 23.361198
					CHANNELS 3 Xrotation Yrotation Zrotation
					JOINT Head
					{
						OFFSET 0.000000 -0.000001 7.058014
						CHANNELS 3 Xrotation Yrotation Zrotation
						End Site
						{
							OFFSET 0.000000 5.634188 17.084396
						}
					}
				}
				JOINT RightShoulder
				{
					OFFSET -3.831360 0.533489 9.826309
					CHANNELS 3 Xrotation Yrotation Zrotation
					JOINT RightArm
					{
						OFFSET 0.000000 -0.000002 12.888100
						CHANNELS 3 Xrotation Yrotation Zrotation
						JOINT RightArmRoll
						{
							OFFSET 0.000000 -0.000001 6.506165
							CHANNELS 3 Xrotation Yrotation Zrotation
							JOINT RightForeArm
							{
								OFFSET 0.000000 -0.000003 18.950104
								CHANNELS 3 Xrotation Yrotation Zrotation
								JOINT RightForeArmRoll
								{
									OFFSET 0.000000 -0.000001 7.300919
									CHANNELS 3 Xrotation Yrotation Zrotation
									JOINT RightHand
									{
										OFFSET 0.000000 -0.000002 14.651398
										CHANNELS 3 Xrotation Yrotation Zrotation
										End Site
										{
											OFFSET 0.000000 0.000000 0.100006
										}
									}
								}
							}
						}
					}
				}
				JOINT LeftShoulder
				{
					OFFSET 3.831360 0.533489 9.826309
					CHANNELS 3 Xrotation Yrotation Zrotation
					JOINT LeftArm
					{
						OFFSET 0.000000 -0.000002 12.888100
						CHANNELS 3 Xrotation Yrotation Zrotation
						JOINT LeftArmRoll
						{
							OFFSET 0.000000 -0.000001 6.506165
							CHANNELS 3 Xrotation Yrotation Zrotation
							JOINT LeftForeArm
							{
								OFFSET 0.000000 -0.000003 18.950104
								CHANNELS 3 Xrotation Yrotation Zrotation
								JOINT LeftForeArmRoll
								{
									OFFSET 0.000000 -0.000001 7.300919
									CHANNELS 3 Xrotation Yrotation Zrotation
									JOINT LeftHand
									{
										OFFSET 0.000000 -0.000002 14.651398
										CHANNELS 3 Xrotation Yrotation Zrotation
										End Site
										{
											OFFSET 0.000000 0.000000 0.100006
										}
									}
								}
							}
						}
					}
				}
			}
		}
	}
	JOINT RightUpLeg
	{
		OFFSET -6.068371 0.933477 -1.112778
		CHANNELS 3 Xrotation Yrotation Zrotation
		JOINT RightUpLegRoll
		{
			OFFSET 0.000000 -0.000003 17.179604
			CHANNELS 3 Xrotation Yrotation Zrotation
			JOINT RightLeg
			{
				OFFSET 0.000000 0.000003 -21.274300
				CHANNELS 3 Xrotation Yrotation Zrotation
				JOINT RightLegRoll
				{
					OFFSET 0.000000 -0.000003 21.343903
					CHANNELS 3 Xrotation Yrotation Zrotation
					JOINT RightFoot
					{
						OFFSET 0.000000 -0.000003 17.765198
						CHANNELS 3 Xrotation Yrotation Zrotation
						JOINT RightToeBase
						{
							OFFSET 0.000000 -0.000002 14.850792
							CHANNELS 3 Xrotation Yrotation Zrotation
							End Site
							{
								OFFSET 0.006294 0.829004 7.192123
							}
						}
					}
				}
			}
		}
	}
	JOINT LeftUpLeg
	{
		OFFSET 6.068371 0.933477 -1.112778
		CHANNELS 3 Xrotation Yrotation Zrotation
		JOINT LeftUpLegRoll
		{
			OFFSET 0.000000 -0.000003 17.179703
			CHANNELS 3 Xrotation Yrotation Zrotation
			JOINT LeftLeg
			{
				OFFSET 0.000000 -0.000003 21.274200
				CHANNELS 3 Xrotation Yrotation Zrotation
				JOINT LeftLegRoll
				{
					OFFSET 0.000000 -0.000004 21.541206
					CHANNELS 3 Xrotation Yrotation Zrotation
					JOINT LeftFoot
					{
						OFFSET 0.000000 -0.000003 17.567902
						CHANNELS 3 Xrotation Yrotation Zrotation
						JOINT LeftToeBase
						{
							OFFSET 0.000000 -0.000002 14.850800
							CHANNELS 3 Xrotation Yrotation Zrotation
							End Site
							{
								OFFSET -0.028210 0.829004 7.192123
							}
						}
					}
				}
			}
		}
	}
}
MOTION
Frames: 4
Frame Time: 0.041667
50.147202 -4.597253 86.499702 -3.603866 -0.456265 -0.903126 -1.718028 -1.576502 1.251550 0.601336 -3.167426 2.472607 2.246799 -3.137312 2.510468 8.909499 14.804864 5.983974 10.710427 -2.946220 4.919126 -10.012081 -49.593857 -11.213995 -54.536608 -109.367345 -25.011316 -0.000005 -0.000002 -0.000006 0.079249 -10.805391 -0.411777 -0.000012 -0.000001 -3.014261 -5.000210 -7.998753 0.000166 -40.420861 76.657091 45.367131 75.811336 68.027106 -113.513823 -0.000002 -0.000000 -0.000001 0.463726 7.877296 -0.999598 -0.000008 -0.000022 3.007579 -5.000222 7.999013 -0.000117 -12.815681 179.957111 -1.982371 -179.999991 0.000005 -1.377002 154.883815 -3.713477 -1.254039 -0.000002 0.000005 0.755014 73.529698 7.799626 -0.874662 25.456858 -7.355619 -0.000002 -10.226107 178.026832 0.403600 -0.000003 -0.000004 -0.980802 -25.748908 1.154246 1.186060 -0.000001 -0.000000 -0.571827 76.156363 -6.087011 -4.063546 25.456952 7.355613 -0.000010 
50.148102 -4.603045 86.500000 -3.613826 -0.456899 -0.906297 -1.716381 -1.577052 1.251809 0.604673 -3.169025 2.473158 2.250138 -3.138923 2.511033 8.910334 14.806810 5.984022 10.695661 -2.951905 4.919702 -10.011427 -49.592812 -11.213114 -54.625691 -109.393778 -25.111317 -0.000001 -0.000001 -0.000005 0.079247 -10.807791 -0.410816 -0.000011 0.000001 -3.014261 -5.000207 -7.998753 0.000165 -40.464735 76.660390 45.413614 75.835645 68.014245 -113.534690 -0.000004 0.000001 0.000005 0.465572 7.877354 -0.999603 -0.000005 -0.000020 3.007584 -5.000226 7.999012 -0.000114 -12.804287 179.955144 -1.984465 -179.999991 0.000005 -1.377002 154.884430 -3.709879 -1.253321 -0.000001 0.000005 0.755045 73.530292 7.798979 -0.872896 25.456856 -7.355620 -0.000002 -10.213105 178.025766 0.400568 -0.000003 -0.000005 -0.980804 -25.745609 1.154747 1.186045 -0.000001 -0.000000 -0.571827 76.155837 -6.087062 -4.064580 25.456948 7.355613 -0.000011 
50.130100 -4.650286 86.511703 -3.623795 -0.457556 -0.909656 -1.714730 -1.577584 1.252048 0.607976 -3.170622 2.473678 2.253446 -3.140545 2.511559 8.911445 14.809343 5.984159 10.680800 -2.957848 4.920409 -10.010485 -49.591493 -11.211846 -54.711338 -109.420423 -25.207904 -0.000002 -0.000001 -0.000005 0.079251 -10.810492 -0.409824 -0.000011 -0.000000 -3.014261 -5.000213 -7.998752 0.000163 -40.509022 76.663594 45.460530 75.859011 68.001596 -113.554559 -0.000002 0.000003 0.000003 0.467306 7.877544 -0.999599 -0.000007 -0.000022 3.007579 -5.000223 7.999014 -0.000114 -12.792686 179.953191 -1.986562 -179.999991 0.000005 -1.377002 154.885263 -3.705374 -1.252146 -0.000002 0.000004 0.755072 73.530866 7.798305 -0.871034 25.456853 -7.355619 -0.000002 -10.199907 178.024687 0.397474 -0.000003 -0.000005 -0.980807 -25.742013 1.155295 1.186016 -0.000000 -0.000000 -0.571827 76.155312 -6.087116 -4.065517 25.456953 7.355612 -0.000010 
50.128605 -4.630926 86.515503 -3.633774 -0.458230 -0.913147 -1.713102 -1.578115 1.252267 0.611256 -3.172230 2.474166 2.256725 -3.142167 2.512053 8.912720 14.812162 5.984388 10.665839 -2.963980 4.921201 -10.009296 -49.589888 -11.210261 -54.795862 -109.446719 -25.303496 -0.000002 -0.000001 -0.000004 0.079247 -10.813196 -0.408799 -0.000011 0.000001 -3.014257 -5.000212 -7.998753 0.000164 -40.553613 76.666749 45.507764 75.881838 67.989308 -113.573786 0.000000 -0.000000 0.000003 0.468952 7.877811 -0.999600 -0.000007 -0.000021 3.007579 -5.000227 7.999012 -0.000115 -12.781085 179.952207 -1.988881 -179.999991 0.000005 -1.377999 154.886287 -3.701777 -1.252380 -0.000001 0.000005 0.755096 73.531440 7.797633 -0.869173 25.456854 -7.355619 -0.000003 -10.186607 178.023621 0.394336 -0.000004 -0.000005 -0.980810 -25.738320 1.155890 1.185988 -0.000001 -0.000000 -0.571827 76.154786 -6.087172 -4.066552 25.456953 7.355613 -0.000011 
